<mxfile host="app.diagrams.net" agent="Mozilla/5.0 (Windows NT 10.0; Win64; x64) AppleWebKit/537.36 (KHTML, like Gecko) Chrome/128.0.0.0 Safari/537.36" version="24.7.14">
  <diagram name="Page-1" id="k7okJDBttZaVVugzs9bd">
    <mxGraphModel dx="2150" dy="2726" grid="1" gridSize="10" guides="1" tooltips="1" connect="1" arrows="1" fold="1" page="1" pageScale="1" pageWidth="850" pageHeight="1100" math="0" shadow="0">
      <root>
        <mxCell id="0" />
        <mxCell id="1" parent="0" />
        <mxCell id="EKc0pZ21omMQ7VHH773I-85" value="" style="rounded=0;whiteSpace=wrap;html=1;movable=1;resizable=1;rotatable=1;deletable=1;editable=1;locked=0;connectable=1;" vertex="1" parent="1">
          <mxGeometry x="4330" y="1130" width="1130" height="1030" as="geometry" />
        </mxCell>
        <mxCell id="EKc0pZ21omMQ7VHH773I-78" value="" style="rounded=0;whiteSpace=wrap;html=1;movable=0;resizable=0;rotatable=0;deletable=0;editable=0;locked=1;connectable=0;" vertex="1" parent="1">
          <mxGeometry x="900" y="-40" width="5300" height="4070" as="geometry" />
        </mxCell>
        <mxCell id="EKc0pZ21omMQ7VHH773I-1" style="rounded=0;orthogonalLoop=1;jettySize=auto;html=1;entryX=0;entryY=0.5;entryDx=0;entryDy=0;endArrow=none;endFill=0;" edge="1" parent="1" source="EKc0pZ21omMQ7VHH773I-3" target="EKc0pZ21omMQ7VHH773I-53">
          <mxGeometry relative="1" as="geometry" />
        </mxCell>
        <mxCell id="EKc0pZ21omMQ7VHH773I-2" style="rounded=0;orthogonalLoop=1;jettySize=auto;html=1;exitX=1;exitY=0.5;exitDx=0;exitDy=0;entryX=0;entryY=0.5;entryDx=0;entryDy=0;endArrow=none;endFill=0;" edge="1" parent="1" source="EKc0pZ21omMQ7VHH773I-3" target="EKc0pZ21omMQ7VHH773I-65">
          <mxGeometry relative="1" as="geometry" />
        </mxCell>
        <mxCell id="EKc0pZ21omMQ7VHH773I-3" value="User" style="html=1;overflow=block;blockSpacing=1;whiteSpace=wrap;fontSize=23.3;spacing=3.8;rounded=1;absoluteArcSize=1;arcSize=9;strokeWidth=1.5;lucidId=Ibb~PA.OU4Rw;fillColor=#fff2cc;strokeColor=#d6b656;" vertex="1" parent="1">
          <mxGeometry x="2953" y="1527" width="225" height="79" as="geometry" />
        </mxCell>
        <mxCell id="EKc0pZ21omMQ7VHH773I-4" value="UserID" style="html=1;overflow=block;blockSpacing=1;whiteSpace=wrap;ellipse;fontSize=16;spacing=3.8;rounded=1;absoluteArcSize=1;arcSize=9;strokeWidth=NaN;lucidId=deb~ORdUGwsw;" vertex="1" parent="1">
          <mxGeometry x="2923" y="1362" width="120" height="75" as="geometry" />
        </mxCell>
        <mxCell id="EKc0pZ21omMQ7VHH773I-6" value="ISA" style="html=1;overflow=block;blockSpacing=1;whiteSpace=wrap;shape=mxgraph.basic.acute_triangle;dx=0.5;anchorPointDirection=0;fontSize=16.7;spacing=3.8;rounded=1;absoluteArcSize=1;arcSize=9;strokeWidth=NaN;lucidId=Zhb~X6QCcXPP;" vertex="1" parent="1">
          <mxGeometry x="4006" y="2152" width="120" height="90" as="geometry" />
        </mxCell>
        <mxCell id="EKc0pZ21omMQ7VHH773I-7" value="" style="html=1;jettySize=18;whiteSpace=wrap;fontSize=13;strokeOpacity=100;strokeWidth=1.5;rounded=0;startArrow=none;endArrow=none;exitX=0.65;exitY=0.987;exitPerimeter=0;entryX=0.412;entryY=-0.01;entryPerimeter=0;lucidId=Nib~Cphp7LjD;" edge="1" parent="1" source="EKc0pZ21omMQ7VHH773I-4" target="EKc0pZ21omMQ7VHH773I-3">
          <mxGeometry width="100" height="100" relative="1" as="geometry">
            <Array as="points" />
          </mxGeometry>
        </mxCell>
        <mxCell id="EKc0pZ21omMQ7VHH773I-9" value="Book" style="html=1;overflow=block;blockSpacing=1;whiteSpace=wrap;fontSize=23.3;spacing=3.8;rounded=1;absoluteArcSize=1;arcSize=9;strokeWidth=NaN;lucidId=zkb~WjzYaKAp;fillColor=#fff2cc;strokeColor=#d6b656;" vertex="1" parent="1">
          <mxGeometry x="3698" y="2377" width="225" height="79" as="geometry" />
        </mxCell>
        <mxCell id="EKc0pZ21omMQ7VHH773I-10" value="Journal" style="html=1;overflow=block;blockSpacing=1;whiteSpace=wrap;fontSize=23.3;spacing=3.8;rounded=1;absoluteArcSize=1;arcSize=9;strokeWidth=NaN;lucidId=Ckb~TEQynrpf;fillColor=#fff2cc;strokeColor=#d6b656;" vertex="1" parent="1">
          <mxGeometry x="3983" y="2377" width="225" height="79" as="geometry" />
        </mxCell>
        <mxCell id="EKc0pZ21omMQ7VHH773I-11" value="Digital Media" style="html=1;overflow=block;blockSpacing=1;whiteSpace=wrap;fontSize=23.3;spacing=3.8;rounded=1;absoluteArcSize=1;arcSize=9;strokeWidth=NaN;lucidId=Ckb~Lre2mcVO;fillColor=#fff2cc;strokeColor=#d6b656;" vertex="1" parent="1">
          <mxGeometry x="4283" y="2377" width="225" height="79" as="geometry" />
        </mxCell>
        <mxCell id="EKc0pZ21omMQ7VHH773I-12" value="Emai" style="html=1;overflow=block;blockSpacing=1;whiteSpace=wrap;ellipse;fontSize=16;spacing=3.8;rounded=1;absoluteArcSize=1;arcSize=9;strokeWidth=NaN;lucidId=Pkb~UIypy60i;" vertex="1" parent="1">
          <mxGeometry x="3217" y="1392" width="120" height="75" as="geometry" />
        </mxCell>
        <mxCell id="EKc0pZ21omMQ7VHH773I-13" value="Name" style="html=1;overflow=block;blockSpacing=1;whiteSpace=wrap;ellipse;fontSize=16;spacing=3.8;rounded=1;absoluteArcSize=1;arcSize=9;strokeWidth=NaN;lucidId=Qkb~F3pdhRHO;" vertex="1" parent="1">
          <mxGeometry x="3074" y="1360" width="120" height="75" as="geometry" />
        </mxCell>
        <mxCell id="EKc0pZ21omMQ7VHH773I-14" value="Position" style="html=1;overflow=block;blockSpacing=1;whiteSpace=wrap;ellipse;fontSize=16;spacing=3.8;rounded=1;absoluteArcSize=1;arcSize=9;strokeWidth=NaN;lucidId=Qkb~cjCRs_wf;" vertex="1" parent="1">
          <mxGeometry x="3418" y="2052" width="120" height="75" as="geometry" />
        </mxCell>
        <mxCell id="EKc0pZ21omMQ7VHH773I-15" value="Title" style="html=1;overflow=block;blockSpacing=1;whiteSpace=wrap;ellipse;fontSize=16;spacing=3.8;rounded=1;absoluteArcSize=1;arcSize=9;strokeWidth=NaN;lucidId=Rkb~H~Zon_am;" vertex="1" parent="1">
          <mxGeometry x="3118" y="2069" width="120" height="75" as="geometry" />
        </mxCell>
        <mxCell id="EKc0pZ21omMQ7VHH773I-16" value="PhoneNumber" style="html=1;overflow=block;blockSpacing=1;whiteSpace=wrap;ellipse;fontSize=16;spacing=3.8;rounded=1;absoluteArcSize=1;arcSize=9;strokeWidth=NaN;lucidId=Skb~tSnLUOOi;" vertex="1" parent="1">
          <mxGeometry x="2758" y="1437" width="120" height="75" as="geometry" />
        </mxCell>
        <mxCell id="EKc0pZ21omMQ7VHH773I-17" value="Department" style="html=1;overflow=block;blockSpacing=1;whiteSpace=wrap;ellipse;fontSize=16;spacing=3.8;rounded=1;absoluteArcSize=1;arcSize=9;strokeWidth=NaN;lucidId=Tkb~MqAnsiVx;" vertex="1" parent="1">
          <mxGeometry x="2886" y="2037" width="120" height="75" as="geometry" />
        </mxCell>
        <mxCell id="EKc0pZ21omMQ7VHH773I-18" value="YearOfStudy" style="html=1;overflow=block;blockSpacing=1;whiteSpace=wrap;ellipse;fontSize=16;spacing=3.8;rounded=1;absoluteArcSize=1;arcSize=9;strokeWidth=NaN;lucidId=Ukb~8xryrL3L;" vertex="1" parent="1">
          <mxGeometry x="2548" y="2037" width="120" height="75" as="geometry" />
        </mxCell>
        <mxCell id="EKc0pZ21omMQ7VHH773I-19" value="" style="html=1;jettySize=18;whiteSpace=wrap;fontSize=13;strokeOpacity=100;strokeWidth=1.5;rounded=0;startArrow=none;endArrow=none;exitX=0.5;exitY=1.01;exitPerimeter=0;entryX=0.5;entryY=-0.01;entryPerimeter=0;lucidId=0kb~ewMH6oj8;" edge="1" parent="1" source="EKc0pZ21omMQ7VHH773I-13" target="EKc0pZ21omMQ7VHH773I-3">
          <mxGeometry width="100" height="100" relative="1" as="geometry">
            <Array as="points" />
          </mxGeometry>
        </mxCell>
        <mxCell id="EKc0pZ21omMQ7VHH773I-20" value="" style="html=1;jettySize=18;whiteSpace=wrap;fontSize=13;strokeOpacity=100;strokeWidth=1.5;rounded=1;arcSize=16;edgeStyle=orthogonalEdgeStyle;startArrow=none;endArrow=none;exitX=0.5;exitY=-0.01;exitPerimeter=0;entryX=0.223;entryY=1.008;entryPerimeter=0;lucidId=9kb~xP2tbf0g;" edge="1" parent="1" source="EKc0pZ21omMQ7VHH773I-9" target="EKc0pZ21omMQ7VHH773I-6">
          <mxGeometry width="100" height="100" relative="1" as="geometry">
            <Array as="points" />
          </mxGeometry>
        </mxCell>
        <mxCell id="EKc0pZ21omMQ7VHH773I-21" value="" style="html=1;jettySize=18;whiteSpace=wrap;fontSize=13;strokeOpacity=100;strokeWidth=1.5;rounded=0;startArrow=none;endArrow=none;exitX=0.5;exitY=1.01;exitPerimeter=0;entryX=1.003;entryY=0.097;entryPerimeter=0;lucidId=elb~dfK6k1ad;" edge="1" parent="1" source="EKc0pZ21omMQ7VHH773I-12" target="EKc0pZ21omMQ7VHH773I-3">
          <mxGeometry width="100" height="100" relative="1" as="geometry">
            <Array as="points" />
          </mxGeometry>
        </mxCell>
        <mxCell id="EKc0pZ21omMQ7VHH773I-22" value="" style="html=1;jettySize=18;whiteSpace=wrap;fontSize=13;strokeOpacity=100;strokeWidth=1.5;rounded=0;startArrow=none;endArrow=none;exitX=0.936;exitY=0.759;exitPerimeter=0;entryX=0.02;entryY=-0.009;entryPerimeter=0;lucidId=klb~Bm_rik7o;" edge="1" parent="1" source="EKc0pZ21omMQ7VHH773I-16" target="EKc0pZ21omMQ7VHH773I-3">
          <mxGeometry width="100" height="100" relative="1" as="geometry">
            <Array as="points" />
          </mxGeometry>
        </mxCell>
        <mxCell id="EKc0pZ21omMQ7VHH773I-23" value="" style="html=1;jettySize=18;whiteSpace=wrap;fontSize=13;strokeOpacity=100;strokeWidth=1.5;rounded=1;arcSize=16;edgeStyle=orthogonalEdgeStyle;startArrow=none;endArrow=none;exitX=0.5;exitY=-0.01;exitPerimeter=0;entryX=0.5;entryY=1.008;entryPerimeter=0;lucidId=klb~onQi2vJE;" edge="1" parent="1" source="EKc0pZ21omMQ7VHH773I-10" target="EKc0pZ21omMQ7VHH773I-6">
          <mxGeometry width="100" height="100" relative="1" as="geometry">
            <Array as="points" />
          </mxGeometry>
        </mxCell>
        <mxCell id="EKc0pZ21omMQ7VHH773I-24" value="" style="html=1;jettySize=18;whiteSpace=wrap;fontSize=13;strokeOpacity=100;strokeWidth=1.5;rounded=1;arcSize=16;edgeStyle=orthogonalEdgeStyle;startArrow=none;endArrow=none;exitX=0.5;exitY=-0.01;exitPerimeter=0;entryX=0.785;entryY=1.008;entryPerimeter=0;lucidId=plb~Or2D8XJy;" edge="1" parent="1" source="EKc0pZ21omMQ7VHH773I-11" target="EKc0pZ21omMQ7VHH773I-6">
          <mxGeometry width="100" height="100" relative="1" as="geometry">
            <Array as="points" />
          </mxGeometry>
        </mxCell>
        <mxCell id="EKc0pZ21omMQ7VHH773I-25" value="ISBN" style="html=1;overflow=block;blockSpacing=1;whiteSpace=wrap;ellipse;fontSize=16;fontStyle=4;spacing=3.8;rounded=1;absoluteArcSize=1;arcSize=9;strokeWidth=NaN;lucidId=hmb~dTRwweTq;" vertex="1" parent="1">
          <mxGeometry x="3473" y="2407" width="120" height="75" as="geometry" />
        </mxCell>
        <mxCell id="EKc0pZ21omMQ7VHH773I-26" value="Author" style="html=1;overflow=block;blockSpacing=1;whiteSpace=wrap;ellipse;fontSize=16;spacing=3.8;rounded=1;absoluteArcSize=1;arcSize=9;strokeWidth=NaN;lucidId=Fmb~w0Mn-9B5;" vertex="1" parent="1">
          <mxGeometry x="3593" y="2512" width="120" height="75" as="geometry" />
        </mxCell>
        <mxCell id="EKc0pZ21omMQ7VHH773I-27" value="Genre" style="html=1;overflow=block;blockSpacing=1;whiteSpace=wrap;ellipse;fontSize=16;spacing=3.8;rounded=1;absoluteArcSize=1;arcSize=9;strokeWidth=NaN;lucidId=1mb~IbQtvBeo;" vertex="1" parent="1">
          <mxGeometry x="3751" y="2557" width="120" height="75" as="geometry" />
        </mxCell>
        <mxCell id="EKc0pZ21omMQ7VHH773I-28" value="" style="html=1;jettySize=18;whiteSpace=wrap;fontSize=13;strokeOpacity=100;strokeWidth=1.5;rounded=0;startArrow=none;endArrow=none;exitX=1.006;exitY=0.5;exitPerimeter=0;entryX=-0.003;entryY=0.5;entryPerimeter=0;lucidId=nnb~-nLo1YAK;" edge="1" parent="1" source="EKc0pZ21omMQ7VHH773I-25" target="EKc0pZ21omMQ7VHH773I-9">
          <mxGeometry width="100" height="100" relative="1" as="geometry">
            <Array as="points" />
          </mxGeometry>
        </mxCell>
        <mxCell id="EKc0pZ21omMQ7VHH773I-29" value="" style="html=1;jettySize=18;whiteSpace=wrap;fontSize=13;strokeOpacity=100;strokeWidth=1.5;rounded=0;startArrow=none;endArrow=none;exitX=0.5;exitY=-0.01;exitPerimeter=0;entryX=0.183;entryY=1.01;entryPerimeter=0;lucidId=Anb~sZAqwrhi;" edge="1" parent="1" source="EKc0pZ21omMQ7VHH773I-26" target="EKc0pZ21omMQ7VHH773I-9">
          <mxGeometry width="100" height="100" relative="1" as="geometry">
            <Array as="points" />
          </mxGeometry>
        </mxCell>
        <mxCell id="EKc0pZ21omMQ7VHH773I-30" value="" style="html=1;jettySize=18;whiteSpace=wrap;fontSize=13;strokeOpacity=100;strokeWidth=1.5;rounded=1;arcSize=16;edgeStyle=orthogonalEdgeStyle;startArrow=none;endArrow=none;exitX=0.5;exitY=-0.01;exitPerimeter=0;entryX=0.5;entryY=1.01;entryPerimeter=0;lucidId=Inb~rhHC8pfN;" edge="1" parent="1" source="EKc0pZ21omMQ7VHH773I-27" target="EKc0pZ21omMQ7VHH773I-9">
          <mxGeometry width="100" height="100" relative="1" as="geometry">
            <Array as="points" />
          </mxGeometry>
        </mxCell>
        <mxCell id="EKc0pZ21omMQ7VHH773I-31" value="Office" style="html=1;overflow=block;blockSpacing=1;whiteSpace=wrap;ellipse;fontSize=16;spacing=3.8;rounded=1;absoluteArcSize=1;arcSize=9;strokeWidth=NaN;lucidId=kob~VuNbRk-P;" vertex="1" parent="1">
          <mxGeometry x="3598" y="1936" width="120" height="75" as="geometry" />
        </mxCell>
        <mxCell id="EKc0pZ21omMQ7VHH773I-32" value="ISSN" style="html=1;overflow=block;blockSpacing=1;whiteSpace=wrap;ellipse;fontSize=16;fontStyle=4;spacing=3.8;rounded=1;absoluteArcSize=1;arcSize=9;strokeWidth=NaN;lucidId=Bob~2Sgti_Fz;" vertex="1" parent="1">
          <mxGeometry x="3923" y="2516" width="120" height="75" as="geometry" />
        </mxCell>
        <mxCell id="EKc0pZ21omMQ7VHH773I-33" value="Volume" style="html=1;overflow=block;blockSpacing=1;whiteSpace=wrap;ellipse;fontSize=16;spacing=3.8;rounded=1;absoluteArcSize=1;arcSize=9;strokeWidth=NaN;lucidId=Bob~Nzpw-5r-;" vertex="1" parent="1">
          <mxGeometry x="4043" y="2602" width="120" height="75" as="geometry" />
        </mxCell>
        <mxCell id="EKc0pZ21omMQ7VHH773I-34" value="Issue" style="html=1;overflow=block;blockSpacing=1;whiteSpace=wrap;ellipse;fontSize=16;spacing=3.8;rounded=1;absoluteArcSize=1;arcSize=9;strokeWidth=NaN;lucidId=Dob~L9mwNsVY;" vertex="1" parent="1">
          <mxGeometry x="4193" y="2527" width="120" height="75" as="geometry" />
        </mxCell>
        <mxCell id="EKc0pZ21omMQ7VHH773I-35" value="" style="html=1;jettySize=18;whiteSpace=wrap;fontSize=13;strokeOpacity=100;strokeWidth=1.5;rounded=0;startArrow=none;endArrow=none;exitX=0.5;exitY=-0.01;exitPerimeter=0;entryX=0.26;entryY=1.01;entryPerimeter=0;lucidId=Kpb~J~rb2n4C;" edge="1" parent="1" source="EKc0pZ21omMQ7VHH773I-32" target="EKc0pZ21omMQ7VHH773I-10">
          <mxGeometry width="100" height="100" relative="1" as="geometry">
            <Array as="points" />
          </mxGeometry>
        </mxCell>
        <mxCell id="EKc0pZ21omMQ7VHH773I-36" value="" style="html=1;jettySize=18;whiteSpace=wrap;fontSize=13;strokeOpacity=100;strokeWidth=1.5;rounded=0;startArrow=none;endArrow=none;exitX=0.5;exitY=-0.01;exitPerimeter=0;entryX=0.533;entryY=1.01;entryPerimeter=0;lucidId=Npb~0jE1utEt;" edge="1" parent="1" source="EKc0pZ21omMQ7VHH773I-33" target="EKc0pZ21omMQ7VHH773I-10">
          <mxGeometry width="100" height="100" relative="1" as="geometry">
            <Array as="points" />
          </mxGeometry>
        </mxCell>
        <mxCell id="EKc0pZ21omMQ7VHH773I-37" value="" style="html=1;jettySize=18;whiteSpace=wrap;fontSize=13;strokeOpacity=100;strokeWidth=1.5;rounded=0;startArrow=none;endArrow=none;exitX=0.5;exitY=-0.01;exitPerimeter=0;entryX=0.704;entryY=1.01;entryPerimeter=0;lucidId=Upb~NNd7wSLj;" edge="1" parent="1" source="EKc0pZ21omMQ7VHH773I-34" target="EKc0pZ21omMQ7VHH773I-10">
          <mxGeometry width="100" height="100" relative="1" as="geometry">
            <Array as="points" />
          </mxGeometry>
        </mxCell>
        <mxCell id="EKc0pZ21omMQ7VHH773I-38" value="" style="html=1;jettySize=18;whiteSpace=wrap;fontSize=13;strokeOpacity=100;strokeWidth=0.8;rounded=1;arcSize=16;edgeStyle=orthogonalEdgeStyle;startArrow=none;endArrow=none;exitX=0.5;exitY=1.01;exitPerimeter=0;lucidId=Wpb~RNClQgct;" edge="1" parent="1" source="EKc0pZ21omMQ7VHH773I-10">
          <mxGeometry width="100" height="100" relative="1" as="geometry">
            <Array as="points" />
            <mxPoint x="4088" y="2456" as="targetPoint" />
          </mxGeometry>
        </mxCell>
        <mxCell id="EKc0pZ21omMQ7VHH773I-39" value="Format" style="html=1;overflow=block;blockSpacing=1;whiteSpace=wrap;ellipse;fontSize=16;spacing=3.8;rounded=1;absoluteArcSize=1;arcSize=9;strokeWidth=NaN;lucidId=Mqb~QgGhY.iY;" vertex="1" parent="1">
          <mxGeometry x="4403" y="2542" width="120" height="75" as="geometry" />
        </mxCell>
        <mxCell id="EKc0pZ21omMQ7VHH773I-40" value="Size" style="html=1;overflow=block;blockSpacing=1;whiteSpace=wrap;ellipse;fontSize=16;spacing=3.8;rounded=1;absoluteArcSize=1;arcSize=9;strokeWidth=NaN;lucidId=Mqb~RKNVan-s;" vertex="1" parent="1">
          <mxGeometry x="4583" y="2476" width="120" height="75" as="geometry" />
        </mxCell>
        <mxCell id="EKc0pZ21omMQ7VHH773I-41" value="Student" style="html=1;overflow=block;blockSpacing=1;whiteSpace=wrap;fontSize=23.3;spacing=3.8;rounded=1;absoluteArcSize=1;arcSize=9;strokeWidth=NaN;lucidId=2qb~SD5P7SA5;fillColor=#fff2cc;strokeColor=#d6b656;" vertex="1" parent="1">
          <mxGeometry x="2616" y="1895" width="225" height="79" as="geometry" />
        </mxCell>
        <mxCell id="EKc0pZ21omMQ7VHH773I-42" value="Faculty" style="html=1;overflow=block;blockSpacing=1;whiteSpace=wrap;fontSize=23.3;spacing=3.8;rounded=1;absoluteArcSize=1;arcSize=9;strokeWidth=NaN;lucidId=2qb~-149YtuU;fillColor=#fff2cc;strokeColor=#d6b656;" vertex="1" parent="1">
          <mxGeometry x="2953" y="1893" width="225" height="79" as="geometry" />
        </mxCell>
        <mxCell id="EKc0pZ21omMQ7VHH773I-43" value="Staff" style="html=1;overflow=block;blockSpacing=1;whiteSpace=wrap;fontSize=23.3;spacing=3.8;rounded=1;absoluteArcSize=1;arcSize=9;strokeWidth=NaN;lucidId=4qb~ApdTcZKe;fillColor=#fff2cc;strokeColor=#d6b656;" vertex="1" parent="1">
          <mxGeometry x="3283" y="1895" width="225" height="79" as="geometry" />
        </mxCell>
        <mxCell id="EKc0pZ21omMQ7VHH773I-44" value="" style="html=1;jettySize=18;whiteSpace=wrap;fontSize=13;strokeOpacity=100;strokeWidth=1.5;rounded=0;startArrow=none;endArrow=none;exitX=0.5;exitY=-0.01;exitPerimeter=0;entryX=1.003;entryY=0.712;entryPerimeter=0;lucidId=9qb~an7u0x5d;" edge="1" parent="1" source="EKc0pZ21omMQ7VHH773I-40" target="EKc0pZ21omMQ7VHH773I-11">
          <mxGeometry width="100" height="100" relative="1" as="geometry">
            <Array as="points" />
          </mxGeometry>
        </mxCell>
        <mxCell id="EKc0pZ21omMQ7VHH773I-45" value="" style="html=1;jettySize=18;whiteSpace=wrap;fontSize=13;strokeOpacity=100;strokeWidth=1.5;rounded=0;startArrow=none;endArrow=none;exitX=0.5;exitY=-0.01;exitPerimeter=0;entryX=0.8;entryY=1.01;entryPerimeter=0;lucidId=crb~xc_QhMXj;" edge="1" parent="1" source="EKc0pZ21omMQ7VHH773I-39" target="EKc0pZ21omMQ7VHH773I-11">
          <mxGeometry width="100" height="100" relative="1" as="geometry">
            <Array as="points" />
          </mxGeometry>
        </mxCell>
        <mxCell id="EKc0pZ21omMQ7VHH773I-46" value="ISA" style="html=1;overflow=block;blockSpacing=1;whiteSpace=wrap;shape=mxgraph.basic.acute_triangle;dx=0.5;anchorPointDirection=0;fontSize=16.7;spacing=3.8;rounded=1;absoluteArcSize=1;arcSize=9;strokeWidth=NaN;lucidId=zrb~J.zkcTz5;" vertex="1" parent="1">
          <mxGeometry x="3006" y="1705" width="120" height="90" as="geometry" />
        </mxCell>
        <mxCell id="EKc0pZ21omMQ7VHH773I-47" value="" style="html=1;jettySize=18;whiteSpace=wrap;fontSize=13;strokeOpacity=100;strokeWidth=1.5;rounded=0;startArrow=none;endArrow=none;exitX=0.5;exitY=1.01;exitPerimeter=0;entryX=0.5;entryY=0.018;entryPerimeter=0;lucidId=fsb~hCbBUsj0;" edge="1" parent="1" source="EKc0pZ21omMQ7VHH773I-3" target="EKc0pZ21omMQ7VHH773I-46">
          <mxGeometry width="100" height="100" relative="1" as="geometry">
            <Array as="points" />
          </mxGeometry>
        </mxCell>
        <mxCell id="EKc0pZ21omMQ7VHH773I-48" value="" style="html=1;jettySize=18;whiteSpace=wrap;fontSize=13;strokeOpacity=100;strokeWidth=1.5;rounded=0;startArrow=none;endArrow=none;exitX=0.012;exitY=0.983;exitPerimeter=0;entryX=0.5;entryY=-0.01;entryPerimeter=0;lucidId=tsb~fnttFB-R;" edge="1" parent="1" source="EKc0pZ21omMQ7VHH773I-46" target="EKc0pZ21omMQ7VHH773I-41">
          <mxGeometry width="100" height="100" relative="1" as="geometry">
            <Array as="points" />
          </mxGeometry>
        </mxCell>
        <mxCell id="EKc0pZ21omMQ7VHH773I-49" value="" style="html=1;jettySize=18;whiteSpace=wrap;fontSize=13;strokeOpacity=100;strokeWidth=1.5;rounded=0;startArrow=none;endArrow=none;exitX=0.5;exitY=-0.01;exitPerimeter=0;entryX=0.982;entryY=0.95;entryPerimeter=0;lucidId=7sb~mDESgfbO;" edge="1" parent="1" source="EKc0pZ21omMQ7VHH773I-43" target="EKc0pZ21omMQ7VHH773I-46">
          <mxGeometry width="100" height="100" relative="1" as="geometry">
            <Array as="points" />
          </mxGeometry>
        </mxCell>
        <mxCell id="EKc0pZ21omMQ7VHH773I-50" value="" style="html=1;jettySize=18;whiteSpace=wrap;fontSize=13;strokeOpacity=100;strokeWidth=1.5;rounded=0;startArrow=none;endArrow=none;exitX=0.5;exitY=1.008;exitPerimeter=0;entryX=0.5;entryY=-0.01;entryPerimeter=0;lucidId=etb~2DHPLdKk;" edge="1" parent="1" source="EKc0pZ21omMQ7VHH773I-46" target="EKc0pZ21omMQ7VHH773I-42">
          <mxGeometry width="100" height="100" relative="1" as="geometry">
            <Array as="points" />
          </mxGeometry>
        </mxCell>
        <mxCell id="EKc0pZ21omMQ7VHH773I-51" value="Major" style="html=1;overflow=block;blockSpacing=1;whiteSpace=wrap;ellipse;fontSize=16;spacing=3.8;rounded=1;absoluteArcSize=1;arcSize=9;strokeWidth=NaN;lucidId=9vb~ZQfDtRIa;" vertex="1" parent="1">
          <mxGeometry x="2428" y="1962" width="120" height="75" as="geometry" />
        </mxCell>
        <mxCell id="EKc0pZ21omMQ7VHH773I-53" value="Borrow" style="html=1;overflow=block;blockSpacing=1;whiteSpace=wrap;shape=rhombus;fontSize=16.7;spacing=3.8;rounded=1;absoluteArcSize=1;arcSize=9;strokeWidth=NaN;lucidId=Uwb~IcZrZNuo;fillColor=#dae8fc;strokeColor=#6c8ebf;" vertex="1" parent="1">
          <mxGeometry x="3523" y="1501" width="120" height="105" as="geometry" />
        </mxCell>
        <mxCell id="EKc0pZ21omMQ7VHH773I-54" value="" style="html=1;jettySize=18;whiteSpace=wrap;fontSize=13;strokeOpacity=100;strokeWidth=1.5;rounded=0;startArrow=none;endArrow=none;exitX=0.964;exitY=0.297;exitPerimeter=0;entryX=-0.003;entryY=0.893;entryPerimeter=0;lucidId=1wb~ClqYtGqN;" edge="1" parent="1" source="EKc0pZ21omMQ7VHH773I-51" target="EKc0pZ21omMQ7VHH773I-41">
          <mxGeometry width="100" height="100" relative="1" as="geometry">
            <Array as="points" />
          </mxGeometry>
        </mxCell>
        <mxCell id="EKc0pZ21omMQ7VHH773I-55" value="" style="html=1;jettySize=18;whiteSpace=wrap;fontSize=13;strokeOpacity=100;strokeWidth=1.5;rounded=0;startArrow=none;endArrow=none;exitX=0.74;exitY=0.051;exitPerimeter=0;entryX=0.348;entryY=1.01;entryPerimeter=0;lucidId=7wb~d3v-XqrY;" edge="1" parent="1" source="EKc0pZ21omMQ7VHH773I-18" target="EKc0pZ21omMQ7VHH773I-41">
          <mxGeometry width="100" height="100" relative="1" as="geometry">
            <Array as="points" />
          </mxGeometry>
        </mxCell>
        <mxCell id="EKc0pZ21omMQ7VHH773I-56" value="" style="html=1;jettySize=18;whiteSpace=wrap;fontSize=13;strokeOpacity=100;strokeWidth=1.5;rounded=0;startArrow=none;endArrow=none;exitX=0.737;exitY=0.049;exitPerimeter=0;entryX=0.35;entryY=1.01;entryPerimeter=0;lucidId=-wb~IkOobWCH;" edge="1" parent="1" source="EKc0pZ21omMQ7VHH773I-17" target="EKc0pZ21omMQ7VHH773I-42">
          <mxGeometry width="100" height="100" relative="1" as="geometry">
            <Array as="points" />
          </mxGeometry>
        </mxCell>
        <mxCell id="EKc0pZ21omMQ7VHH773I-57" value="" style="html=1;jettySize=18;whiteSpace=wrap;fontSize=13;strokeOpacity=100;strokeWidth=1.5;rounded=0;startArrow=none;endArrow=none;exitX=0.309;exitY=0.028;exitPerimeter=0;entryX=0.615;entryY=1.01;entryPerimeter=0;lucidId=axb~CR9Hb0Z2;" edge="1" parent="1" source="EKc0pZ21omMQ7VHH773I-15" target="EKc0pZ21omMQ7VHH773I-42">
          <mxGeometry width="100" height="100" relative="1" as="geometry">
            <Array as="points" />
          </mxGeometry>
        </mxCell>
        <mxCell id="EKc0pZ21omMQ7VHH773I-58" value="" style="html=1;jettySize=18;whiteSpace=wrap;fontSize=13;strokeOpacity=100;strokeWidth=1.5;rounded=0;startArrow=none;endArrow=none;exitX=0.007;exitY=0.382;exitPerimeter=0;entryX=1.003;entryY=0.716;entryPerimeter=0;lucidId=lxb~B~OQXYP6;" edge="1" parent="1" source="EKc0pZ21omMQ7VHH773I-31" target="EKc0pZ21omMQ7VHH773I-43">
          <mxGeometry width="100" height="100" relative="1" as="geometry">
            <Array as="points" />
          </mxGeometry>
        </mxCell>
        <mxCell id="EKc0pZ21omMQ7VHH773I-59" value="Borrow Date" style="html=1;overflow=block;blockSpacing=1;whiteSpace=wrap;ellipse;fontSize=16;spacing=3.8;rounded=1;absoluteArcSize=1;arcSize=9;strokeWidth=NaN;lucidId=lxb~ClQQONYQ;" vertex="1" parent="1">
          <mxGeometry x="3403" y="1360" width="120" height="75" as="geometry" />
        </mxCell>
        <mxCell id="EKc0pZ21omMQ7VHH773I-60" value="" style="html=1;jettySize=18;whiteSpace=wrap;fontSize=13;strokeOpacity=100;strokeWidth=1.5;rounded=0;startArrow=none;endArrow=none;exitX=0.34;exitY=0.016;exitPerimeter=0;entryX=0.595;entryY=1.01;entryPerimeter=0;lucidId=oxb~nrZqmT9B;" edge="1" parent="1" source="EKc0pZ21omMQ7VHH773I-14" target="EKc0pZ21omMQ7VHH773I-43">
          <mxGeometry width="100" height="100" relative="1" as="geometry">
            <Array as="points" />
          </mxGeometry>
        </mxCell>
        <mxCell id="EKc0pZ21omMQ7VHH773I-61" value="Return Date" style="html=1;overflow=block;blockSpacing=1;whiteSpace=wrap;ellipse;fontSize=16;spacing=3.8;rounded=1;absoluteArcSize=1;arcSize=9;strokeWidth=NaN;lucidId=Xxb~akZgW5Vv;" vertex="1" parent="1">
          <mxGeometry x="3583" y="1360" width="120" height="75" as="geometry" />
        </mxCell>
        <mxCell id="EKc0pZ21omMQ7VHH773I-62" value="" style="html=1;jettySize=18;whiteSpace=wrap;fontSize=13;strokeOpacity=100;strokeWidth=1;rounded=0;startArrow=none;endArrow=none;exitX=0.5;exitY=0.009;exitPerimeter=0;entryX=0.5;entryY=1.01;entryPerimeter=0;lucidId=cyb~DjGYGkf3;" edge="1" parent="1" source="EKc0pZ21omMQ7VHH773I-53" target="EKc0pZ21omMQ7VHH773I-61">
          <mxGeometry width="100" height="100" relative="1" as="geometry">
            <Array as="points" />
          </mxGeometry>
        </mxCell>
        <mxCell id="EKc0pZ21omMQ7VHH773I-63" value="" style="endArrow=none;html=1;rounded=0;entryX=0.328;entryY=0.143;entryDx=0;entryDy=0;entryPerimeter=0;" edge="1" parent="1" source="EKc0pZ21omMQ7VHH773I-59" target="EKc0pZ21omMQ7VHH773I-53">
          <mxGeometry relative="1" as="geometry">
            <mxPoint x="3453" y="1645" as="sourcePoint" />
            <mxPoint x="3613" y="1645" as="targetPoint" />
          </mxGeometry>
        </mxCell>
        <mxCell id="EKc0pZ21omMQ7VHH773I-65" value="Reserve" style="html=1;overflow=block;blockSpacing=1;whiteSpace=wrap;shape=rhombus;fontSize=16.7;spacing=3.8;rounded=1;absoluteArcSize=1;arcSize=9;strokeWidth=NaN;lucidId=Uwb~IcZrZNuo;fillColor=#dae8fc;strokeColor=#6c8ebf;" vertex="1" parent="1">
          <mxGeometry x="3523" y="1640" width="120" height="105" as="geometry" />
        </mxCell>
        <mxCell id="EKc0pZ21omMQ7VHH773I-66" value="Reservation Date" style="html=1;overflow=block;blockSpacing=1;whiteSpace=wrap;ellipse;fontSize=16;spacing=3.8;rounded=1;absoluteArcSize=1;arcSize=9;strokeWidth=NaN;lucidId=Xxb~akZgW5Vv;" vertex="1" parent="1">
          <mxGeometry x="3643" y="1755" width="120" height="75" as="geometry" />
        </mxCell>
        <mxCell id="EKc0pZ21omMQ7VHH773I-67" value="" style="html=1;jettySize=18;whiteSpace=wrap;fontSize=13;strokeOpacity=100;strokeWidth=1;rounded=0;startArrow=none;endArrow=none;exitX=0.77;exitY=0.758;exitPerimeter=0;lucidId=cyb~DjGYGkf3;exitDx=0;exitDy=0;" edge="1" parent="1" source="EKc0pZ21omMQ7VHH773I-65" target="EKc0pZ21omMQ7VHH773I-66">
          <mxGeometry width="100" height="100" relative="1" as="geometry">
            <Array as="points" />
            <mxPoint x="3673" y="1775.0049999999999" as="sourcePoint" />
            <mxPoint x="3863" y="1919.81" as="targetPoint" />
          </mxGeometry>
        </mxCell>
        <mxCell id="EKc0pZ21omMQ7VHH773I-69" value="Has" style="html=1;overflow=block;blockSpacing=1;whiteSpace=wrap;shape=rhombus;fontSize=16.7;spacing=3.8;rounded=1;absoluteArcSize=1;arcSize=9;strokeWidth=NaN;lucidId=Uwb~IcZrZNuo;fillColor=#dae8fc;strokeColor=#6c8ebf;" vertex="1" parent="1">
          <mxGeometry x="4058.5" y="1392" width="120" height="105" as="geometry" />
        </mxCell>
        <mxCell id="EKc0pZ21omMQ7VHH773I-70" style="rounded=0;orthogonalLoop=1;jettySize=auto;html=1;entryX=1;entryY=0.5;entryDx=0;entryDy=0;endArrow=none;endFill=0;" edge="1" parent="1" source="EKc0pZ21omMQ7VHH773I-73" target="EKc0pZ21omMQ7VHH773I-69">
          <mxGeometry relative="1" as="geometry" />
        </mxCell>
        <mxCell id="EKc0pZ21omMQ7VHH773I-71" style="rounded=0;orthogonalLoop=1;jettySize=auto;html=1;entryX=0.5;entryY=0;entryDx=0;entryDy=0;endArrow=none;endFill=0;" edge="1" parent="1" source="EKc0pZ21omMQ7VHH773I-73" target="EKc0pZ21omMQ7VHH773I-74">
          <mxGeometry relative="1" as="geometry" />
        </mxCell>
        <mxCell id="EKc0pZ21omMQ7VHH773I-72" style="rounded=0;orthogonalLoop=1;jettySize=auto;html=1;exitX=0.75;exitY=1;exitDx=0;exitDy=0;entryX=0;entryY=0;entryDx=0;entryDy=0;endArrow=none;endFill=0;" edge="1" parent="1" source="EKc0pZ21omMQ7VHH773I-73" target="EKc0pZ21omMQ7VHH773I-76">
          <mxGeometry relative="1" as="geometry" />
        </mxCell>
        <mxCell id="EKc0pZ21omMQ7VHH773I-73" value="Copies" style="html=1;overflow=block;blockSpacing=1;whiteSpace=wrap;fontSize=23.3;spacing=3.8;rounded=1;absoluteArcSize=1;arcSize=9;strokeWidth=1.5;lucidId=Ibb~PA.OU4Rw;fillColor=#fff2cc;strokeColor=#d6b656;" vertex="1" parent="1">
          <mxGeometry x="4293" y="1405" width="225" height="79" as="geometry" />
        </mxCell>
        <mxCell id="EKc0pZ21omMQ7VHH773I-74" value="&lt;u&gt;CopyID&lt;/u&gt;" style="html=1;overflow=block;blockSpacing=1;whiteSpace=wrap;ellipse;fontSize=16;spacing=3.8;rounded=1;absoluteArcSize=1;arcSize=9;strokeWidth=NaN;lucidId=deb~ORdUGwsw;" vertex="1" parent="1">
          <mxGeometry x="4213" y="1531" width="120" height="75" as="geometry" />
        </mxCell>
        <mxCell id="EKc0pZ21omMQ7VHH773I-75" value="Condition" style="html=1;overflow=block;blockSpacing=1;whiteSpace=wrap;ellipse;fontSize=16;spacing=3.8;rounded=1;absoluteArcSize=1;arcSize=9;strokeWidth=NaN;lucidId=deb~ORdUGwsw;" vertex="1" parent="1">
          <mxGeometry x="4363" y="1547" width="120" height="75" as="geometry" />
        </mxCell>
        <mxCell id="EKc0pZ21omMQ7VHH773I-76" value="Location" style="html=1;overflow=block;blockSpacing=1;whiteSpace=wrap;ellipse;fontSize=16;spacing=3.8;rounded=1;absoluteArcSize=1;arcSize=9;strokeWidth=NaN;lucidId=deb~ORdUGwsw;" vertex="1" parent="1">
          <mxGeometry x="4513" y="1535" width="120" height="75" as="geometry" />
        </mxCell>
        <mxCell id="EKc0pZ21omMQ7VHH773I-88" value="" style="rounded=0;whiteSpace=wrap;html=1;dashed=1;strokeWidth=3;" vertex="1" parent="1">
          <mxGeometry x="3903" y="1878.75" width="1427" height="241.5" as="geometry" />
        </mxCell>
        <mxCell id="EKc0pZ21omMQ7VHH773I-77" style="rounded=0;orthogonalLoop=1;jettySize=auto;html=1;entryX=0.622;entryY=0.97;entryDx=0;entryDy=0;entryPerimeter=0;endArrow=none;endFill=0;" edge="1" parent="1">
          <mxGeometry relative="1" as="geometry">
            <mxPoint x="4413" y="1545" as="sourcePoint" />
            <mxPoint x="4409.44" y="1481.57" as="targetPoint" />
          </mxGeometry>
        </mxCell>
        <mxCell id="EKc0pZ21omMQ7VHH773I-80" value="Publisher" style="html=1;overflow=block;blockSpacing=1;whiteSpace=wrap;fontSize=23.3;spacing=3.8;rounded=1;absoluteArcSize=1;arcSize=9;strokeWidth=NaN;lucidId=Ihb~I9GNWebM;fillColor=#fff2cc;strokeColor=#d6b656;" vertex="1" parent="1">
          <mxGeometry x="5020" y="1972" width="225" height="79" as="geometry" />
        </mxCell>
        <mxCell id="EKc0pZ21omMQ7VHH773I-82" style="edgeStyle=orthogonalEdgeStyle;rounded=0;orthogonalLoop=1;jettySize=auto;html=1;exitX=1;exitY=0.5;exitDx=0;exitDy=0;endArrow=none;endFill=0;" edge="1" parent="1" source="EKc0pZ21omMQ7VHH773I-81" target="EKc0pZ21omMQ7VHH773I-80">
          <mxGeometry relative="1" as="geometry" />
        </mxCell>
        <mxCell id="EKc0pZ21omMQ7VHH773I-81" value="Publish&lt;div&gt;by&lt;/div&gt;" style="html=1;overflow=block;blockSpacing=1;whiteSpace=wrap;shape=rhombus;fontSize=16.7;spacing=3.8;rounded=1;absoluteArcSize=1;arcSize=9;strokeWidth=NaN;lucidId=Uwb~IcZrZNuo;fillColor=#dae8fc;strokeColor=#6c8ebf;" vertex="1" parent="1">
          <mxGeometry x="4508" y="1959" width="120" height="105" as="geometry" />
        </mxCell>
        <mxCell id="EKc0pZ21omMQ7VHH773I-79" style="edgeStyle=orthogonalEdgeStyle;rounded=0;orthogonalLoop=1;jettySize=auto;html=1;exitX=1;exitY=0.5;exitDx=0;exitDy=0;endArrow=none;endFill=0;" edge="1" parent="1" source="EKc0pZ21omMQ7VHH773I-5" target="EKc0pZ21omMQ7VHH773I-81">
          <mxGeometry relative="1" as="geometry">
            <mxPoint x="4470" y="2012" as="targetPoint" />
          </mxGeometry>
        </mxCell>
        <mxCell id="EKc0pZ21omMQ7VHH773I-5" value="Item" style="html=1;overflow=block;blockSpacing=1;whiteSpace=wrap;fontSize=23.3;spacing=3.8;rounded=1;absoluteArcSize=1;arcSize=9;strokeWidth=NaN;lucidId=Ihb~I9GNWebM;fillColor=#fff2cc;strokeColor=#d6b656;" vertex="1" parent="1">
          <mxGeometry x="3953.5" y="1972" width="225" height="79" as="geometry" />
        </mxCell>
        <mxCell id="EKc0pZ21omMQ7VHH773I-64" style="edgeStyle=orthogonalEdgeStyle;rounded=0;orthogonalLoop=1;jettySize=auto;html=1;exitX=1;exitY=0.5;exitDx=0;exitDy=0;entryX=0.25;entryY=0;entryDx=0;entryDy=0;endArrow=none;endFill=0;" edge="1" parent="1" source="EKc0pZ21omMQ7VHH773I-65" target="EKc0pZ21omMQ7VHH773I-5">
          <mxGeometry relative="1" as="geometry" />
        </mxCell>
        <mxCell id="EKc0pZ21omMQ7VHH773I-52" style="edgeStyle=orthogonalEdgeStyle;rounded=0;orthogonalLoop=1;jettySize=auto;html=1;exitX=1;exitY=0.5;exitDx=0;exitDy=0;entryX=0.5;entryY=0;entryDx=0;entryDy=0;endArrow=none;endFill=0;" edge="1" parent="1" source="EKc0pZ21omMQ7VHH773I-53" target="EKc0pZ21omMQ7VHH773I-5">
          <mxGeometry relative="1" as="geometry" />
        </mxCell>
        <mxCell id="EKc0pZ21omMQ7VHH773I-68" style="rounded=0;orthogonalLoop=1;jettySize=auto;html=1;exitX=0.5;exitY=1;exitDx=0;exitDy=0;entryX=0.75;entryY=0;entryDx=0;entryDy=0;endArrow=none;endFill=0;" edge="1" parent="1" source="EKc0pZ21omMQ7VHH773I-69" target="EKc0pZ21omMQ7VHH773I-5">
          <mxGeometry relative="1" as="geometry" />
        </mxCell>
        <mxCell id="EKc0pZ21omMQ7VHH773I-8" value="" style="html=1;jettySize=18;whiteSpace=wrap;fontSize=13;strokeOpacity=100;strokeWidth=1.5;rounded=0;startArrow=none;endArrow=none;exitX=0.5;exitY=0.018;exitPerimeter=0;entryX=0.5;entryY=1.01;entryPerimeter=0;lucidId=Djb~g8ZYfIWS;" edge="1" parent="1" source="EKc0pZ21omMQ7VHH773I-6" target="EKc0pZ21omMQ7VHH773I-5">
          <mxGeometry width="100" height="100" relative="1" as="geometry">
            <Array as="points" />
          </mxGeometry>
        </mxCell>
        <mxCell id="EKc0pZ21omMQ7VHH773I-89" style="edgeStyle=orthogonalEdgeStyle;rounded=0;orthogonalLoop=1;jettySize=auto;html=1;exitX=0.5;exitY=1;exitDx=0;exitDy=0;" edge="1" parent="1" source="EKc0pZ21omMQ7VHH773I-80" target="EKc0pZ21omMQ7VHH773I-80">
          <mxGeometry relative="1" as="geometry" />
        </mxCell>
      </root>
    </mxGraphModel>
  </diagram>
</mxfile>
